<svg width="17" height="16" viewBox="0 0 17 16" fill="none" xmlns="http://www.w3.org/2000/svg">
<path fill-rule="evenodd" clip-rule="evenodd" d="M8.20234 0C3.67055 0 0 3.67055 0 8.20235C0 11.8319 2.34792 14.8975 5.60835 15.9843C6.01847 16.0561 6.17226 15.81 6.17226 15.5947C6.17226 15.3999 6.16201 14.754 6.16201 14.067C4.10117 14.4464 3.56802 13.5646 3.40397 13.1033C3.3117 12.8674 2.91183 12.1395 2.56323 11.9447C2.27615 11.7909 1.86603 11.4115 2.55298 11.4013C3.19891 11.391 3.6603 11.9959 3.81409 12.242C4.5523 13.4826 5.73139 13.134 6.20302 12.9187C6.27479 12.3855 6.4901 12.0267 6.72592 11.8216C4.9009 11.6166 2.99386 10.9091 2.99386 7.77173C2.99386 6.87972 3.3117 6.14151 3.8346 5.56735C3.75257 5.36229 3.46549 4.52155 3.91662 3.39372C3.91662 3.39372 4.60356 3.17841 6.17226 4.23446C6.82845 4.04991 7.52565 3.95763 8.22285 3.95763C8.92005 3.95763 9.61725 4.04991 10.2734 4.23446C11.8421 3.16816 12.5291 3.39372 12.5291 3.39372C12.9802 4.52155 12.6931 5.36229 12.6111 5.56735C13.134 6.14151 13.4518 6.86947 13.4518 7.77173C13.4518 10.9194 11.5345 11.6166 9.70952 11.8216C10.0069 12.078 10.2632 12.5701 10.2632 13.3391C10.2632 14.4361 10.2529 15.3179 10.2529 15.5947C10.2529 15.81 10.4067 16.0664 10.8168 15.9843C12.4451 15.4346 13.86 14.3881 14.8624 12.9921C15.8648 11.5961 16.4042 9.92094 16.4047 8.20235C16.4047 3.67055 12.7341 0 8.20234 0Z" fill="#232323"/>
</svg>
