<svg width="18" height="16" viewBox="0 0 18 16" fill="none" xmlns="http://www.w3.org/2000/svg">
<path d="M8.70515 0C13.5129 0 17.4103 3.03769 17.4103 6.78588C17.4103 10.5332 13.5129 13.5709 8.70515 13.5709C8.22643 13.5712 7.74818 13.5407 7.27336 13.4797L3.61886 15.8699C3.2035 16.0896 3.05675 16.0656 3.22754 15.5275L3.96706 12.4782C1.57936 11.2678 0 9.17026 0 6.78588C0 3.03851 3.89742 0 8.70515 0ZM13.6024 6.68224L14.8211 5.50166C14.8915 5.42863 14.9307 5.33115 14.9306 5.22976C14.9305 5.12838 14.891 5.031 14.8205 4.95813C14.75 4.88527 14.654 4.84261 14.5526 4.83915C14.4513 4.83568 14.3526 4.87168 14.2773 4.93955L12.6788 6.48659V5.20817C12.6788 5.10439 12.6376 5.00485 12.5642 4.93147C12.4908 4.85808 12.3913 4.81685 12.2875 4.81685C12.1837 4.81685 12.0842 4.85808 12.0108 4.93147C11.9374 5.00485 11.8962 5.10439 11.8962 5.20817V7.32808C11.8815 7.38856 11.8815 7.45166 11.8962 7.51214V8.70516C11.8962 8.80894 11.9374 8.90847 12.0108 8.98186C12.0842 9.05525 12.1837 9.09647 12.2875 9.09647C12.3913 9.09647 12.4908 9.05525 12.5642 8.98186C12.6376 8.90847 12.6788 8.80894 12.6788 8.70516V7.57514L13.0329 7.23274L14.2168 8.91823C14.2463 8.96031 14.2839 8.99615 14.3273 9.02372C14.3707 9.05128 14.4191 9.07002 14.4698 9.07888C14.5204 9.08773 14.5723 9.08652 14.6225 9.07531C14.6727 9.06411 14.7202 9.04313 14.7623 9.01357C14.8044 8.98401 14.8402 8.94645 14.8678 8.90304C14.8953 8.85962 14.9141 8.81121 14.9229 8.76055C14.9318 8.7099 14.9306 8.65799 14.9194 8.6078C14.9082 8.55761 14.8872 8.51012 14.8576 8.46804L13.6024 6.68142V6.68224ZM11.1501 8.27736H9.93962V5.22061C9.93499 5.12005 9.89178 5.02514 9.81898 4.95562C9.74618 4.88609 9.64939 4.8473 9.54872 4.8473C9.44806 4.8473 9.35126 4.88609 9.27846 4.95562C9.20566 5.02514 9.16245 5.12005 9.15782 5.22061V8.66868C9.15782 8.88423 9.33192 9.06 9.54831 9.06H11.1501C11.2538 9.06 11.3534 9.01877 11.4268 8.94538C11.5001 8.87199 11.5414 8.77246 11.5414 8.66868C11.5414 8.56489 11.5001 8.46536 11.4268 8.39197C11.3534 8.31859 11.2538 8.27736 11.1501 8.27736ZM6.29424 7.37202L6.87127 5.95681L7.40021 7.37202H6.29424ZM8.38596 7.77661L8.38762 7.76334C8.38742 7.66476 8.34979 7.56993 8.28233 7.49804L7.41513 5.17667C7.37878 5.06604 7.30953 4.96915 7.21664 4.89893C7.12376 4.8287 7.01165 4.7885 6.89531 4.78369C6.77811 4.78318 6.66354 4.81836 6.56683 4.88456C6.47012 4.95076 6.39586 5.04484 6.35393 5.15428L4.97686 8.53271C4.95743 8.58029 4.94755 8.63123 4.9478 8.68262C4.94806 8.73402 4.95843 8.78486 4.97833 8.83224C4.99823 8.87963 5.02727 8.92263 5.06379 8.95879C5.10031 8.99495 5.14359 9.02357 5.19117 9.043C5.23875 9.06243 5.28969 9.07231 5.34108 9.07205C5.39248 9.0718 5.44332 9.06143 5.4907 9.04153C5.53809 9.02163 5.58109 8.99259 5.61725 8.95607C5.65341 8.91955 5.68202 8.87626 5.70146 8.82869L5.97505 8.15466H7.69121L7.9391 8.81791C7.95595 8.86749 7.98258 8.91318 8.01742 8.95227C8.05225 8.99137 8.09457 9.02308 8.14188 9.04552C8.18919 9.06796 8.24053 9.08068 8.29284 9.08292C8.34516 9.08516 8.39739 9.07688 8.44645 9.05857C8.4955 9.04025 8.54039 9.01228 8.57843 8.97631C8.61648 8.94033 8.64692 8.89709 8.66796 8.84913C8.68899 8.80118 8.70018 8.74949 8.70088 8.69713C8.70157 8.64478 8.69174 8.59281 8.67199 8.54432L8.38596 7.77661ZM5.63182 5.22475C5.63182 5.12111 5.5907 5.0217 5.5175 4.94834C5.44429 4.87498 5.34497 4.83365 5.24133 4.83343H2.55102C2.44724 4.83343 2.34771 4.87466 2.27432 4.94805C2.20093 5.02143 2.15971 5.12097 2.15971 5.22475C2.15971 5.32854 2.20093 5.42807 2.27432 5.50146C2.34771 5.57484 2.44724 5.61607 2.55102 5.61607H3.51274V8.71345C3.51274 8.81723 3.55396 8.91676 3.62735 8.99015C3.70074 9.06354 3.80027 9.10476 3.90405 9.10476C4.00784 9.10476 4.10737 9.06354 4.18076 8.99015C4.25414 8.91676 4.29537 8.81723 4.29537 8.71345V5.61607H5.2405C5.34428 5.61607 5.44382 5.57484 5.5172 5.50146C5.59059 5.42807 5.63182 5.32854 5.63182 5.22475Z" fill="#232323"/>
</svg>
