<svg width="15" height="12" viewBox="0 0 15 12" fill="none" xmlns="http://www.w3.org/2000/svg">
<path d="M14.7692 3.11354V9.69231C14.7692 10.3043 14.5261 10.8913 14.0933 11.3241C13.6605 11.7569 13.0736 12 12.4615 12H2.30769C1.69565 12 1.10868 11.7569 0.675907 11.3241C0.243131 10.8913 0 10.3043 0 9.69231V3.11354L7.15015 7.32092C7.22119 7.36282 7.30215 7.38491 7.38461 7.38491C7.46708 7.38491 7.54804 7.36282 7.61907 7.32092L14.7692 3.11354ZM12.4615 2.85717e-08C13.0294 -8.92763e-05 13.5773 0.209175 14.0005 0.58776C14.4237 0.966344 14.6925 1.48767 14.7554 2.052L7.38461 6.38769L0.0138462 2.052C0.0767615 1.48767 0.34553 0.966344 0.768734 0.58776C1.19194 0.209175 1.73986 -8.92763e-05 2.30769 2.85717e-08H12.4615Z" fill="#232323"/>
</svg>
